<svg version="1.1" id="Layer_1" xmlns="http://www.w3.org/2000/svg" xmlns:xlink="http://www.w3.org/1999/xlink" x="0px" y="0px"
	 width="100%" viewBox="0 0 937 188" enable-background="new 0 0 937 188" xml:space="preserve">
<path fill="#020202" opacity="1.000000" stroke="none" 
	d="
M641.000000,189.000000 
	C427.380676,189.000000 214.261368,189.000000 1.071031,189.000000 
	C1.071031,126.394676 1.071031,63.789253 1.071031,1.091913 
	C313.333313,1.091913 625.666626,1.091913 937.966919,1.091913 
	C937.966919,63.738617 937.966919,126.369316 937.966919,189.000000 
	C839.122559,189.000000 740.311279,189.000000 641.000000,189.000000 
M659.574341,82.163834 
	C654.513977,66.074379 644.473755,54.553215 628.245422,49.287766 
	C612.262634,44.101978 596.951538,46.184681 582.119873,56.199039 
	C582.119873,40.106895 582.119873,25.214367 582.119873,10.300798 
	C574.875488,10.300798 568.113586,10.300798 561.197144,10.300798 
	C561.197144,56.422306 561.197144,102.315155 561.197144,148.209641 
	C568.212219,148.209641 574.956909,148.209641 582.146729,148.209641 
	C582.146729,145.403214 582.146729,142.857224 582.146729,139.683365 
	C583.574890,140.553040 584.398315,141.024078 585.191284,141.541779 
	C607.598999,156.170609 639.496033,149.298111 653.651001,126.621887 
	C662.131531,113.036171 663.584534,98.315369 659.574341,82.163834 
M451.702850,94.528091 
	C451.492981,89.375473 451.608704,84.184746 451.010956,79.077515 
	C449.352509,64.907036 442.514282,53.891903 428.587158,49.595463 
	C405.567871,42.494164 385.112671,48.206367 367.079742,64.407692 
	C371.103302,70.211143 374.935883,75.739082 378.927734,81.496788 
	C380.550140,80.023232 381.757324,78.919792 382.972015,77.824669 
	C391.707672,69.948860 402.066895,66.524864 413.674805,67.269188 
	C424.756775,67.979797 430.259277,74.552132 429.696289,86.164467 
	C422.439270,86.164467 415.148285,86.052162 407.862183,86.193062 
	C398.870361,86.366951 389.850494,86.857475 381.818390,91.516335 
	C370.662109,97.987320 365.335175,109.576393 367.299164,122.398285 
	C369.133820,134.375748 378.291321,144.003601 390.872009,147.232422 
	C404.347992,150.691025 417.385162,149.621109 429.926270,143.164627 
	C430.239746,145.090088 430.495056,146.658478 430.745911,148.199387 
	C437.845917,148.199387 444.598846,148.199387 451.702789,148.199387 
	C451.702789,130.438278 451.702789,112.978897 451.702850,94.528091 
M673.244019,126.148438 
	C692.955444,157.954834 744.167908,155.221329 758.944824,127.563568 
	C754.593018,122.646538 750.210022,117.694252 745.484619,112.355064 
	C739.002380,122.500023 730.435913,128.145996 718.533997,128.330322 
	C705.989929,128.524551 695.010315,122.831993 691.376160,113.476807 
	C715.163818,108.833923 738.894043,104.202248 763.171997,99.463676 
	C762.800171,95.761032 762.546204,92.326271 762.098877,88.916878 
	C757.699036,55.384422 724.023438,36.776730 692.579651,51.655586 
	C666.179321,64.147919 657.159851,99.480148 673.244019,126.148438 
M849.999207,102.500061 
	C849.968872,96.174408 850.057800,89.845367 849.878418,83.523941 
	C849.647705,75.393646 847.653870,67.739693 842.734985,61.099426 
	C835.319580,51.089001 824.858582,47.279034 812.874634,46.842697 
	C794.780640,46.183903 778.863403,51.372883 765.631165,64.688797 
	C769.565613,70.312004 773.412170,75.809662 777.432251,81.555206 
	C779.093018,80.019760 780.291931,78.887932 781.515686,77.783722 
	C790.687805,69.507668 801.515991,65.975349 813.683472,67.509857 
	C824.201355,68.836327 828.766052,75.088310 827.908386,86.167259 
	C825.976868,86.167259 824.007935,86.122910 822.041504,86.174889 
	C813.230713,86.407799 804.369263,86.149635 795.620056,87.016869 
	C770.501587,89.506645 761.270874,108.910446 767.124207,127.958939 
	C770.683655,139.542480 783.735535,147.932678 798.360474,148.914764 
	C808.959229,149.626465 819.165161,148.372192 828.673584,142.814178 
	C828.892029,144.982590 829.052673,146.577118 829.214050,148.179016 
	C836.246094,148.179016 842.960632,148.179016 849.999146,148.179016 
	C849.999146,133.086533 849.999146,118.293282 849.999207,102.500061 
M234.928253,110.181335 
	C247.728928,109.810188 260.601410,110.158943 273.312622,108.890869 
	C290.290771,107.197121 304.840698,99.741287 311.638214,83.386772 
	C324.144806,53.296448 309.101959,20.984753 270.787140,18.037594 
	C252.231018,16.610264 233.509918,17.325151 214.863251,17.089399 
	C214.234314,17.081448 213.602707,17.282476 212.995300,17.382322 
	C212.995300,24.296705 212.995300,31.015810 212.995300,37.999741 
	C223.762634,37.999741 234.238434,37.853371 244.708115,38.043476 
	C254.015274,38.212471 263.363464,38.301388 272.603729,39.276623 
	C279.871490,40.043686 286.316925,43.301075 290.244659,49.997288 
	C299.919983,66.492355 291.334351,85.389618 272.200134,87.776993 
	C259.714447,89.334839 246.946671,88.681618 234.303238,88.905830 
	C227.190369,89.031975 220.073425,88.928566 212.999664,88.928566 
	C212.999664,109.027702 212.999664,128.598465 212.999664,148.163422 
	C220.194061,148.163422 227.083374,148.163422 234.370682,148.163422 
	C234.370682,135.536697 234.370682,123.237038 234.928253,110.181335 
M521.080933,131.585754 
	C533.774109,103.603966 546.467346,75.622169 559.375916,47.165504 
	C552.430420,47.165504 546.280090,47.325649 540.144287,47.096542 
	C537.169128,46.985443 535.912415,48.065948 534.713318,50.776726 
	C525.100525,72.508194 515.266357,94.141708 505.315704,116.213867 
	C504.487122,114.558533 503.778229,113.264008 503.176331,111.921516 
	C494.014313,91.485725 484.898712,71.028915 475.643494,50.635460 
	C475.011475,49.242844 473.400482,47.381786 472.170807,47.324432 
	C465.286407,47.003319 458.379242,47.169876 450.948486,47.169876 
	C451.609070,48.772102 451.950989,49.674934 452.347748,50.552971 
	C464.304108,77.011688 475.904449,103.640839 488.429199,129.827850 
	C492.631592,138.614197 493.347473,145.856781 487.702301,154.072800 
	C482.182220,162.106720 472.932190,163.796890 465.687134,157.151230 
	C463.503998,155.148712 461.444519,153.011383 459.070190,150.682541 
	C455.249146,156.496704 451.460419,162.261749 447.750275,167.907196 
	C466.002563,189.382172 495.203491,185.982864 507.571777,161.213181 
	C512.308899,151.726395 516.498169,141.966064 521.080933,131.585754 
M916.459412,147.103546 
	C921.209229,144.231873 925.959045,141.360199 931.024658,138.297592 
	C927.084473,131.731827 923.727112,126.137245 920.282166,120.396713 
	C917.673035,122.513680 915.667969,124.250732 913.549500,125.836288 
	C909.213562,129.081543 904.234253,129.853531 899.429199,127.726906 
	C894.918701,125.730606 895.159058,120.952644 895.118347,116.839294 
	C894.999573,104.842857 895.074036,92.844505 895.072937,80.846909 
	C895.072510,76.564537 895.072815,72.282166 895.072815,67.490860 
	C904.715698,67.490860 913.785034,67.490860 922.835205,67.490860 
	C922.835205,60.526035 922.835205,54.083138 922.835205,47.115784 
	C913.550110,47.115784 904.487732,47.115784 895.007935,47.115784 
	C895.007935,40.518326 895.007935,34.436043 895.007935,28.318413 
	C887.668457,28.318413 880.768127,28.318413 873.420349,28.318413 
	C873.420349,34.722591 873.420349,40.811508 873.420349,47.333195 
	C867.879211,47.333195 862.784973,47.333195 857.715881,47.333195 
	C857.715881,54.343517 857.715881,60.886330 857.715881,67.931000 
	C863.208008,67.931000 868.284241,67.931000 873.701355,67.931000 
	C873.701355,70.251472 873.695923,72.058144 873.702271,73.864777 
	C873.758179,89.859558 873.510559,105.862953 873.960999,121.846657 
	C874.395996,137.284454 885.010376,148.007233 900.414612,148.798431 
	C905.473694,149.058258 910.606018,147.890991 916.459412,147.103546 
M84.205246,160.497955 
	C84.218185,165.830948 84.007698,171.176575 84.307861,176.493347 
	C84.599037,181.650818 88.729149,185.198578 93.590248,185.030701 
	C98.269577,184.869080 101.702904,181.321411 102.050911,176.236938 
	C102.130417,175.075424 102.077911,173.904510 102.077927,172.737930 
	C102.078743,121.572052 102.078911,70.406174 102.077095,19.240297 
	C102.077049,17.907179 102.152435,16.564522 102.024200,15.242654 
	C101.562904,10.487530 98.086693,7.118536 93.580017,6.968589 
	C89.096474,6.819412 85.200005,9.936933 84.396652,14.515867 
	C84.111923,16.138798 84.212120,17.837069 84.211830,19.500957 
	C84.203720,66.166901 84.205276,112.832848 84.205246,160.497955 
M330.735840,56.499893 
	C330.735840,87.088150 330.735840,117.676407 330.735840,148.287476 
	C338.158569,148.287476 344.926666,148.287476 351.917389,148.287476 
	C351.917389,102.197113 351.917389,56.313225 351.917389,10.309211 
	C344.783844,10.309211 337.880066,10.309211 330.735840,10.309211 
	C330.735840,25.553507 330.735840,40.526699 330.735840,56.499893 
M48.709648,125.499878 
	C48.719864,133.497238 48.579895,141.498627 48.793133,149.490570 
	C48.935120,154.812210 52.756241,158.303146 57.742764,158.247513 
	C62.536594,158.194016 65.932121,154.837677 66.360931,149.687943 
	C66.443665,148.694260 66.414124,147.690140 66.414192,146.690826 
	C66.416451,112.867928 66.418877,79.045029 66.406509,45.222134 
	C66.405960,43.726669 66.474770,42.184921 66.153702,40.744434 
	C65.159035,36.281868 62.262257,33.784817 57.691193,33.758270 
	C53.150856,33.731907 50.130119,36.143951 49.038174,40.557178 
	C48.606995,42.299847 48.723053,44.197124 48.721844,46.024090 
	C48.704533,72.182678 48.709801,98.341270 48.709648,125.499878 
M126.383690,140.107422 
	C132.341751,142.097748 137.931015,136.946518 137.874802,130.098495 
	C137.687775,107.316566 137.843491,84.532036 137.777695,61.748768 
	C137.759521,55.452625 133.973373,51.320587 128.716385,51.438541 
	C123.443436,51.556847 119.954704,55.683006 119.947174,62.000187 
	C119.920204,84.617317 120.000488,107.234833 119.883926,129.851395 
	C119.859879,134.517532 121.408470,137.903778 126.383690,140.107422 
M30.922829,82.503616 
	C30.920872,78.341988 31.017637,74.177414 30.893217,70.019447 
	C30.717972,64.163002 26.805485,60.093220 21.731270,60.284443 
	C16.795902,60.470440 13.103499,64.437691 13.078629,70.013603 
	C13.001412,87.325600 12.940989,104.639664 13.176206,121.948814 
	C13.208925,124.356552 14.283914,127.753593 16.042324,128.892395 
	C18.501162,130.484818 22.243185,131.341629 25.097357,130.782761 
	C29.264591,129.966751 30.910959,126.182205 30.915298,121.955658 
	C30.928455,109.137878 30.921776,96.320068 30.922829,82.503616 
M173.277374,90.645973 
	C173.276901,89.979881 173.291428,89.313400 173.273666,88.647766 
	C173.100967,82.174225 169.692368,78.084358 164.482208,78.091438 
	C159.295807,78.098488 155.641724,82.330093 155.556992,88.596687 
	C155.484955,93.924347 155.412491,99.258591 155.594193,104.581253 
	C155.779739,110.016106 159.858170,114.017105 164.699905,113.872147 
	C169.470215,113.729324 173.058914,109.939018 173.234100,104.593895 
	C173.375839,100.268822 173.272324,95.935715 173.277374,90.645973 
z"/>
<path fill="#D2E1E9" opacity="1.000000" stroke="none" 
	d="
M659.723022,82.544777 
	C663.584534,98.315369 662.131531,113.036171 653.651001,126.621887 
	C639.496033,149.298111 607.598999,156.170609 585.191284,141.541779 
	C584.398315,141.024078 583.574890,140.553040 582.146729,139.683365 
	C582.146729,142.857224 582.146729,145.403214 582.146729,148.209641 
	C574.956909,148.209641 568.212219,148.209641 561.197144,148.209641 
	C561.197144,102.315155 561.197144,56.422306 561.197144,10.300798 
	C568.113586,10.300798 574.875488,10.300798 582.119873,10.300798 
	C582.119873,25.214367 582.119873,40.106895 582.119873,56.199039 
	C596.951538,46.184681 612.262634,44.101978 628.245422,49.287766 
	C644.473755,54.553215 654.513977,66.074379 659.723022,82.544777 
M619.782227,68.600731 
	C602.632385,64.171806 588.206482,72.063599 583.570557,88.410591 
	C578.746460,105.420837 586.829712,122.453552 601.895813,127.025002 
	C618.118591,131.947403 633.350464,124.224640 638.566345,108.432487 
	C644.113525,91.637138 636.292297,74.434479 619.782227,68.600731 
z"/>
<path fill="#E6EDF2" opacity="1.000000" stroke="none" 
	d="
M451.702820,95.023804 
	C451.702789,112.978897 451.702789,130.438278 451.702789,148.199387 
	C444.598846,148.199387 437.845917,148.199387 430.745911,148.199387 
	C430.495056,146.658478 430.239746,145.090088 429.926270,143.164627 
	C417.385162,149.621109 404.347992,150.691025 390.872009,147.232422 
	C378.291321,144.003601 369.133820,134.375748 367.299164,122.398285 
	C365.335175,109.576393 370.662109,97.987320 381.818390,91.516335 
	C389.850494,86.857475 398.870361,86.366951 407.862183,86.193062 
	C415.148285,86.052162 422.439270,86.164467 429.696289,86.164467 
	C430.259277,74.552132 424.756775,67.979797 413.674805,67.269188 
	C402.066895,66.524864 391.707672,69.948860 382.972015,77.824669 
	C381.757324,78.919792 380.550140,80.023232 378.927734,81.496788 
	C374.935883,75.739082 371.103302,70.211143 367.079742,64.407692 
	C385.112671,48.206367 405.567871,42.494164 428.587158,49.595463 
	C442.514282,53.891903 449.352509,64.907036 451.010956,79.077515 
	C451.608704,84.184746 451.492981,89.375473 451.702820,95.023804 
M396.841644,106.984360 
	C390.042603,109.728294 388.089142,112.407906 388.646362,118.226105 
	C389.165894,123.651222 392.391510,127.149460 398.705994,128.210190 
	C402.598419,128.864075 406.658722,129.106766 410.591339,128.819153 
	C420.945068,128.061935 433.487549,118.151215 429.409515,106.035477 
	C420.682129,106.035477 411.883545,105.988602 403.086243,106.074150 
	C401.278168,106.091721 399.474884,106.604164 396.841644,106.984360 
z"/>
<path fill="#C7D9E3" opacity="1.000000" stroke="none" 
	d="
M673.078430,125.822662 
	C657.159851,99.480148 666.179321,64.147919 692.579651,51.655586 
	C724.023438,36.776730 757.699036,55.384422 762.098877,88.916878 
	C762.546204,92.326271 762.800171,95.761032 763.171997,99.463676 
	C738.894043,104.202248 715.163818,108.833923 691.376160,113.476807 
	C695.010315,122.831993 705.989929,128.524551 718.533997,128.330322 
	C730.435913,128.145996 739.002380,122.500023 745.484619,112.355064 
	C750.210022,117.694252 754.593018,122.646538 758.944824,127.563568 
	C744.167908,155.221329 692.955444,157.954834 673.078430,125.822662 
M715.486938,88.936897 
	C723.365540,87.348015 731.244202,85.759140 739.192932,84.156128 
	C734.462402,71.422310 722.022888,64.966858 708.562561,67.870331 
	C695.738037,70.636665 686.572876,81.975845 687.431213,94.421257 
	C696.528870,92.610680 705.583069,90.808746 715.486938,88.936897 
z"/>
<path fill="#BCD2DF" opacity="1.000000" stroke="none" 
	d="
M849.999146,103.000046 
	C849.999146,118.293282 849.999146,133.086533 849.999146,148.179016 
	C842.960632,148.179016 836.246094,148.179016 829.214050,148.179016 
	C829.052673,146.577118 828.892029,144.982590 828.673584,142.814178 
	C819.165161,148.372192 808.959229,149.626465 798.360474,148.914764 
	C783.735535,147.932678 770.683655,139.542480 767.124207,127.958939 
	C761.270874,108.910446 770.501587,89.506645 795.620056,87.016869 
	C804.369263,86.149635 813.230713,86.407799 822.041504,86.174889 
	C824.007935,86.122910 825.976868,86.167259 827.908386,86.167259 
	C828.766052,75.088310 824.201355,68.836327 813.683472,67.509857 
	C801.515991,65.975349 790.687805,69.507668 781.515686,77.783722 
	C780.291931,78.887932 779.093018,80.019760 777.432251,81.555206 
	C773.412170,75.809662 769.565613,70.312004 765.631165,64.688797 
	C778.863403,51.372883 794.780640,46.183903 812.874634,46.842697 
	C824.858582,47.279034 835.319580,51.089001 842.734985,61.099426 
	C847.653870,67.739693 849.647705,75.393646 849.878418,83.523941 
	C850.057800,89.845367 849.968872,96.174408 849.999146,103.000046 
M789.787415,124.627136 
	C797.241699,130.095612 810.625122,130.775467 818.577026,125.798973 
	C824.661987,121.990921 830.637207,115.831024 828.124634,106.733788 
	C817.610229,106.733788 807.121582,105.985031 796.793213,106.950775 
	C787.056946,107.861160 784.208191,115.400848 789.787415,124.627136 
z"/>
<path fill="#FDFDFD" opacity="1.000000" stroke="none" 
	d="
M234.649475,110.559357 
	C234.370682,123.237038 234.370682,135.536697 234.370682,148.163422 
	C227.083374,148.163422 220.194061,148.163422 212.999664,148.163422 
	C212.999664,128.598465 212.999664,109.027702 212.999664,88.928566 
	C220.073425,88.928566 227.190369,89.031975 234.303238,88.905830 
	C246.946671,88.681618 259.714447,89.334839 272.200134,87.776993 
	C291.334351,85.389618 299.919983,66.492355 290.244659,49.997288 
	C286.316925,43.301075 279.871490,40.043686 272.603729,39.276623 
	C263.363464,38.301388 254.015274,38.212471 244.708115,38.043476 
	C234.238434,37.853371 223.762634,37.999741 212.995300,37.999741 
	C212.995300,31.015810 212.995300,24.296705 212.995300,17.382322 
	C213.602707,17.282476 214.234314,17.081448 214.863251,17.089399 
	C233.509918,17.325151 252.231018,16.610264 270.787140,18.037594 
	C309.101959,20.984753 324.144806,53.296448 311.638214,83.386772 
	C304.840698,99.741287 290.290771,107.197121 273.312622,108.890869 
	C260.601410,110.158943 247.728928,109.810188 234.649475,110.559357 
z"/>
<path fill="#DCE7EE" opacity="1.000000" stroke="none" 
	d="
M521.009033,131.958069 
	C516.498169,141.966064 512.308899,151.726395 507.571777,161.213181 
	C495.203491,185.982864 466.002563,189.382172 447.750275,167.907196 
	C451.460419,162.261749 455.249146,156.496704 459.070190,150.682541 
	C461.444519,153.011383 463.503998,155.148712 465.687134,157.151230 
	C472.932190,163.796890 482.182220,162.106720 487.702301,154.072800 
	C493.347473,145.856781 492.631592,138.614197 488.429199,129.827850 
	C475.904449,103.640839 464.304108,77.011688 452.347748,50.552971 
	C451.950989,49.674934 451.609070,48.772102 450.948486,47.169876 
	C458.379242,47.169876 465.286407,47.003319 472.170807,47.324432 
	C473.400482,47.381786 475.011475,49.242844 475.643494,50.635460 
	C484.898712,71.028915 494.014313,91.485725 503.176331,111.921516 
	C503.778229,113.264008 504.487122,114.558533 505.315704,116.213867 
	C515.266357,94.141708 525.100525,72.508194 534.713318,50.776726 
	C535.912415,48.065948 537.169128,46.985443 540.144287,47.096542 
	C546.280090,47.325649 552.430420,47.165504 559.375916,47.165504 
	C546.467346,75.622169 533.774109,103.603966 521.009033,131.958069 
z"/>
<path fill="#B0CAD9" opacity="1.000000" stroke="none" 
	d="
M916.082153,147.239929 
	C910.606018,147.890991 905.473694,149.058258 900.414612,148.798431 
	C885.010376,148.007233 874.395996,137.284454 873.960999,121.846657 
	C873.510559,105.862953 873.758179,89.859558 873.702271,73.864777 
	C873.695923,72.058144 873.701355,70.251472 873.701355,67.931000 
	C868.284241,67.931000 863.208008,67.931000 857.715881,67.931000 
	C857.715881,60.886330 857.715881,54.343517 857.715881,47.333195 
	C862.784973,47.333195 867.879211,47.333195 873.420349,47.333195 
	C873.420349,40.811508 873.420349,34.722591 873.420349,28.318413 
	C880.768127,28.318413 887.668457,28.318413 895.007935,28.318413 
	C895.007935,34.436043 895.007935,40.518326 895.007935,47.115784 
	C904.487732,47.115784 913.550110,47.115784 922.835205,47.115784 
	C922.835205,54.083138 922.835205,60.526035 922.835205,67.490860 
	C913.785034,67.490860 904.715698,67.490860 895.072815,67.490860 
	C895.072815,72.282166 895.072510,76.564537 895.072937,80.846909 
	C895.074036,92.844505 894.999573,104.842857 895.118347,116.839294 
	C895.159058,120.952644 894.918701,125.730606 899.429199,127.726906 
	C904.234253,129.853531 909.213562,129.081543 913.549500,125.836288 
	C915.667969,124.250732 917.673035,122.513680 920.282166,120.396713 
	C923.727112,126.137245 927.084473,131.731827 931.024658,138.297592 
	C925.959045,141.360199 921.209229,144.231873 916.082153,147.239929 
z"/>
<path fill="#F9F9F9" opacity="1.000000" stroke="none" 
	d="
M84.205246,159.998383 
	C84.205276,112.832848 84.203720,66.166901 84.211830,19.500957 
	C84.212120,17.837069 84.111923,16.138798 84.396652,14.515867 
	C85.200005,9.936933 89.096474,6.819412 93.580017,6.968589 
	C98.086693,7.118536 101.562904,10.487530 102.024200,15.242654 
	C102.152435,16.564522 102.077049,17.907179 102.077095,19.240297 
	C102.078911,70.406174 102.078743,121.572052 102.077927,172.737930 
	C102.077911,173.904510 102.130417,175.075424 102.050911,176.236938 
	C101.702904,181.321411 98.269577,184.869080 93.590248,185.030701 
	C88.729149,185.198578 84.599037,181.650818 84.307861,176.493347 
	C84.007698,171.176575 84.218185,165.830948 84.205246,159.998383 
z"/>
<path fill="#F3F7F9" opacity="1.000000" stroke="none" 
	d="
M330.735840,55.999893 
	C330.735840,40.526699 330.735840,25.553507 330.735840,10.309211 
	C337.880066,10.309211 344.783844,10.309211 351.917389,10.309211 
	C351.917389,56.313225 351.917389,102.197113 351.917389,148.287476 
	C344.926666,148.287476 338.158569,148.287476 330.735840,148.287476 
	C330.735840,117.676407 330.735840,87.088150 330.735840,55.999893 
z"/>
<path fill="#FDFDFD" opacity="1.000000" stroke="none" 
	d="
M48.709641,124.999878 
	C48.709801,98.341270 48.704533,72.182678 48.721844,46.024090 
	C48.723053,44.197124 48.606995,42.299847 49.038174,40.557178 
	C50.130119,36.143951 53.150856,33.731907 57.691193,33.758270 
	C62.262257,33.784817 65.159035,36.281868 66.153702,40.744434 
	C66.474770,42.184921 66.405960,43.726669 66.406509,45.222134 
	C66.418877,79.045029 66.416451,112.867928 66.414192,146.690826 
	C66.414124,147.690140 66.443665,148.694260 66.360931,149.687943 
	C65.932121,154.837677 62.536594,158.194016 57.742764,158.247513 
	C52.756241,158.303146 48.935120,154.812210 48.793133,149.490570 
	C48.579895,141.498627 48.719864,133.497238 48.709641,124.999878 
z"/>
<path fill="#F9F9F9" opacity="1.000000" stroke="none" 
	d="
M126.024506,140.017761 
	C121.408470,137.903778 119.859879,134.517532 119.883926,129.851395 
	C120.000488,107.234833 119.920204,84.617317 119.947174,62.000187 
	C119.954704,55.683006 123.443436,51.556847 128.716385,51.438541 
	C133.973373,51.320587 137.759521,55.452625 137.777695,61.748768 
	C137.843491,84.532036 137.687775,107.316566 137.874802,130.098495 
	C137.931015,136.946518 132.341751,142.097748 126.024506,140.017761 
z"/>
<path fill="#F7F7F7" opacity="1.000000" stroke="none" 
	d="
M30.922829,83.002945 
	C30.921776,96.320068 30.928455,109.137878 30.915298,121.955658 
	C30.910959,126.182205 29.264591,129.966751 25.097357,130.782761 
	C22.243185,131.341629 18.501162,130.484818 16.042324,128.892395 
	C14.283914,127.753593 13.208925,124.356552 13.176206,121.948814 
	C12.940989,104.639664 13.001412,87.325600 13.078629,70.013603 
	C13.103499,64.437691 16.795902,60.470440 21.731270,60.284443 
	C26.805485,60.093220 30.717972,64.163002 30.893217,70.019447 
	C31.017637,74.177414 30.920872,78.341988 30.922829,83.002945 
z"/>
<path fill="#FCFCFC" opacity="1.000000" stroke="none" 
	d="
M173.277481,91.126068 
	C173.272324,95.935715 173.375839,100.268822 173.234100,104.593895 
	C173.058914,109.939018 169.470215,113.729324 164.699905,113.872147 
	C159.858170,114.017105 155.779739,110.016106 155.594193,104.581253 
	C155.412491,99.258591 155.484955,93.924347 155.556992,88.596687 
	C155.641724,82.330093 159.295807,78.098488 164.482208,78.091438 
	C169.692368,78.084358 173.100967,82.174225 173.273666,88.647766 
	C173.291428,89.313400 173.276901,89.979881 173.277481,91.126068 
z"/>
<path fill="#020202" opacity="1.000000" stroke="none" 
	d="
M620.168579,68.708740 
	C636.292297,74.434479 644.113525,91.637138 638.566345,108.432487 
	C633.350464,124.224640 618.118591,131.947403 601.895813,127.025002 
	C586.829712,122.453552 578.746460,105.420837 583.570557,88.410591 
	C588.206482,72.063599 602.632385,64.171806 620.168579,68.708740 
z"/>
<path fill="#030303" opacity="1.000000" stroke="none" 
	d="
M397.255524,106.936432 
	C399.474884,106.604164 401.278168,106.091721 403.086243,106.074150 
	C411.883545,105.988602 420.682129,106.035477 429.409515,106.035477 
	C433.487549,118.151215 420.945068,128.061935 410.591339,128.819153 
	C406.658722,129.106766 402.598419,128.864075 398.705994,128.210190 
	C392.391510,127.149460 389.165894,123.651222 388.646362,118.226105 
	C388.089142,112.407906 390.042603,109.728294 397.255524,106.936432 
z"/>
<path fill="#050506" opacity="1.000000" stroke="none" 
	d="
M715.062134,88.971855 
	C705.583069,90.808746 696.528870,92.610680 687.431213,94.421257 
	C686.572876,81.975845 695.738037,70.636665 708.562561,67.870331 
	C722.022888,64.966858 734.462402,71.422310 739.192932,84.156128 
	C731.244202,85.759140 723.365540,87.348015 715.062134,88.971855 
z"/>
<path fill="#030404" opacity="1.000000" stroke="none" 
	d="
M789.526978,124.341675 
	C784.208191,115.400848 787.056946,107.861160 796.793213,106.950775 
	C807.121582,105.985031 817.610229,106.733788 828.124634,106.733788 
	C830.637207,115.831024 824.661987,121.990921 818.577026,125.798973 
	C810.625122,130.775467 797.241699,130.095612 789.526978,124.341675 
z"/>
</svg>